<?xml version="1.0" encoding="UTF-8" standalone="no"?><!-- Generator: Gravit.io --><svg xmlns="http://www.w3.org/2000/svg" xmlns:xlink="http://www.w3.org/1999/xlink" style="isolation:isolate" viewBox="0 0 384 384" width="384pt" height="384pt"><defs><clipPath id="_clipPath_JiDU7AArp0riOo4AjND3MC2XYpsZ0qXP"><rect width="384" height="384"/></clipPath></defs><g clip-path="url(#_clipPath_JiDU7AArp0riOo4AjND3MC2XYpsZ0qXP)"><g><g opacity="0.2"><mask id="_mask_15NxMHKWMJDokgyoplHsNVPaLx2LPbZv" x="-200%" y="-200%" width="400%" height="400%"><rect x="-200%" y="-200%" width="400%" height="400%" style="fill:white;"/><path d=" M 69.559 23.832 C 60.844 23.832 53.778 30.023 53.778 37.66 L 53.778 40.217 C 53.776 40.314 53.771 40.41 53.771 40.507 L 53.771 344.387 C 53.771 353.102 60.837 360.168 69.552 360.168 L 314.442 360.168 C 323.156 360.168 330.223 353.102 330.223 344.387 L 330.223 304.255 C 330.225 304.17 330.23 304.086 330.23 304 L 330.23 37.66 C 330.23 30.024 323.162 23.832 314.448 23.832 L 69.559 23.832 Z " fill="black" stroke="none"/></mask><path d=" M 69.559 23.832 C 60.844 23.832 53.778 30.023 53.778 37.66 L 53.778 40.217 C 53.776 40.314 53.771 40.41 53.771 40.507 L 53.771 344.387 C 53.771 353.102 60.837 360.168 69.552 360.168 L 314.442 360.168 C 323.156 360.168 330.223 353.102 330.223 344.387 L 330.223 304.255 C 330.225 304.17 330.23 304.086 330.23 304 L 330.23 37.66 C 330.23 30.024 323.162 23.832 314.448 23.832 L 69.559 23.832 Z " fill="rgb(0,0,0)"/><path d=" M 69.559 23.832 C 60.844 23.832 53.778 30.023 53.778 37.66 L 53.778 40.217 C 53.776 40.314 53.771 40.41 53.771 40.507 L 53.771 344.387 C 53.771 353.102 60.837 360.168 69.552 360.168 L 314.442 360.168 C 323.156 360.168 330.223 353.102 330.223 344.387 L 330.223 304.255 C 330.225 304.17 330.23 304.086 330.23 304 L 330.23 37.66 C 330.23 30.024 323.162 23.832 314.448 23.832 L 69.559 23.832 Z " fill="rgb(0,0,0)" mask="url(#_mask_15NxMHKWMJDokgyoplHsNVPaLx2LPbZv)" vector-effect="non-scaling-stroke" stroke-width="15" stroke="rgb(0,0,0)" stroke-linejoin="miter" stroke-linecap="butt" stroke-miterlimit="4"/></g><path d=" M 69.559 23.832 L 314.449 23.832 C 323.164 23.832 330.23 30.898 330.23 39.609 L 330.23 343.489 C 330.23 352.203 323.163 359.27 314.449 359.27 L 69.559 359.27 C 60.844 359.27 53.778 352.203 53.778 343.489 L 53.778 39.609 C 53.778 30.898 60.844 23.832 69.559 23.832 L 69.559 23.832 Z " fill="rgb(0,0,0)"/><g><path d=" M 74.387 329.017 L 190.617 329.017 C 193.011 329.017 194.953 330.958 194.953 333.353 L 194.953 341.919 C 194.953 344.313 193.011 346.259 190.617 346.259 L 74.387 346.259 C 71.988 346.259 70.047 344.313 70.047 341.919 L 70.047 333.353 C 70.047 330.958 71.988 329.017 74.387 329.017 Z " fill="rgb(255,255,255)"/><path d=" M 69.566 22.934 L 314.456 22.934 C 323.171 22.934 330.237 29.125 330.237 36.762 L 330.237 303.102 C 330.237 310.742 323.17 316.934 314.456 316.934 L 69.566 316.934 C 60.851 316.934 53.785 310.742 53.785 303.102 L 53.785 36.762 C 53.785 29.125 60.851 22.934 69.566 22.934 L 69.566 22.934 Z " fill="rgb(255,255,255)"/><linearGradient id="_lgradient_0" x1="0.14310853113540822" y1="0.7090357720176834" x2="2.0880374903977708" y2="0.04508179427907888" gradientTransform="matrix(155,0,0,182.699,115,80)" gradientUnits="userSpaceOnUse"><stop offset="0%" stop-opacity="1" style="stop-color:rgb(252,52,52)"/><stop offset="100%" stop-opacity="1" style="stop-color:rgb(211,24,24)"/></linearGradient><path d=" M 178.104 80.001 C 182.296 107.989 162.904 138.595 144.202 161.462 C 143.544 150.301 142.848 142.6 136.967 131.92 C 135.647 152.194 120.123 168.72 115.921 189.034 C 110.226 216.542 131.754 246.847 158.014 256.499 C 163.955 258.68 177.164 261.495 182.731 262.699 C 171.765 254.321 154.662 239.307 152.083 225.535 C 151.172 222.424 150.708 219.222 150.7 216.001 C 150.7 195.361 169.113 178.629 191.826 178.629 C 214.541 178.629 232.952 195.361 232.952 216.001 C 232.947 218.381 232.691 220.756 232.19 223.091 C 231.274 236.715 211.801 253.54 200.173 262.699 L 204.643 262.699 C 207.745 261.573 213.548 260.196 221.311 255.771 C 317.271 201.069 243.96 122.375 231.379 113.219 C 235.573 122.375 236.367 137.873 227.896 145.393 C 213.558 91.123 178.103 80 178.103 80 L 178.104 80.001 Z " fill="url(#_lgradient_0)"/><path d=" M 275.974 337.607 C 275.974 341.876 272.513 345.337 268.243 345.337 C 263.97 345.337 260.509 341.876 260.509 337.607 C 260.509 333.337 263.97 329.876 268.243 329.876 C 272.513 329.876 275.974 333.337 275.974 337.607 Z " fill="rgb(255,255,255)"/><path d=" M 299.854 337.607 C 299.854 341.876 296.389 345.337 292.119 345.337 C 287.85 345.337 284.389 341.876 284.389 337.607 C 284.389 333.337 287.85 329.876 292.119 329.876 C 296.389 329.876 299.854 333.337 299.854 337.607 Z " fill="rgb(255,255,255)"/></g><g opacity="0.3"><circle vector-effect="non-scaling-stroke" cx="316.3138" cy="303.00667999999996" r="5.6089000000000055" fill="rgb(0,0,0)"/></g><g opacity="0.3"><circle vector-effect="non-scaling-stroke" cx="67.8858" cy="36.65668" r="5.608900000000002" fill="rgb(0,0,0)"/></g><g opacity="0.3"><circle vector-effect="non-scaling-stroke" cx="316.3138" cy="36.85868" r="5.6089000000000055" fill="rgb(0,0,0)"/></g><g opacity="0.3"><circle vector-effect="non-scaling-stroke" cx="67.7148" cy="303.00667999999996" r="5.608900000000002" fill="rgb(0,0,0)"/></g></g></g></svg>